# xmcd CD database file
#
# Track frame offsets:
#	150
#	22550
#	45323
#	62138
#	84120
#	102221
#	124183
#	140703
#	163727
#	186400
#	212759
#	224579
#	245265
#
# Disc length: 3355 seconds
#
# Revision: 0
# Processed by: cddbd v1.5.1PL0 Copyright (c) Steve Scherf et al.
# Submitted via: CDex 1.51
#
DISCID=b10d190d
DTITLE=Los Swing Timers - Tributo a Cortazar
DYEAR=2004
DGENRE=Jazz
TTITLE0=Struttin' with some barbacue
TTITLE1=Blue interlude
TTITLE2=Muskrat Rumble
TTITLE3=When it's sleepy time south down
TTITLE4=I´m coming Virginia
TTITLE5=Stardust
TTITLE6=Jazz me blues
TTITLE7=Blue Monk
TTITLE8=Ain't got nobody
TTITLE9=It don't mean a thing
TTITLE10=Mahogany hall stomp
TTITLE11=Empty bed blues
TTITLE12=Audio Cortazar
EXTD=YEAR: 2004
EXTT0=
EXTT1=
EXTT2=
EXTT3=
EXTT4=
EXTT5=
EXTT6=
EXTT7=
EXTT8=
EXTT9=
EXTT10=
EXTT11=
EXTT12=
PLAYORDER=
